<?xml version="1.0" encoding="UTF-8" ?>
<svg width="24px" height="48px" xmlns="http://www.w3.org/2000/svg" xmlns:xlink="http://www.w3.org/1999/xlink">
    <title>hack.Chat</title>
    <style type="text/css">
        .outline { fill: none; stroke-width: 2px; stroke: #bbbbbb; }
        .disabled { fill: #bbbbbb; }
        .enabled { fill: #78b2f2; }
        .enabled .outline { stroke: #78b2f2; }
    </style>
    <g class="disabled">
        <rect x="3" y="3" width="18" height="18" rx="2" ry="2" class="outline" />
        <rect x="4" y="4" width="16" height="2" />
        <rect x="5" y="8" width="5" height="2" rx="1" ry="1" />
        <rect x="11" y="8" width="6" height="2" rx="1" ry="1" />
        <rect x="5" y="11" width="3" height="2" rx="1" ry="1" />
        <rect x="11" y="11" width="8" height="2" rx="1" ry="1" />
        <rect x="11" y="14" width="5" height="2" rx="1" ry="1" />
        <rect x="5" y="17" width="4" height="2" rx="1" ry="1" />
        <rect x="11" y="17" width="7" height="2" rx="1" ry="1" />
    </g>
    <g class="enabled" transform="translate(0, 24)">
        <rect x="3" y="3" width="18" height="18" rx="2" ry="2" class="outline" />
        <rect x="4" y="4" width="16" height="2" />
        <rect x="5" y="8" width="5" height="2" rx="1" ry="1" />
        <rect x="11" y="8" width="6" height="2" rx="1" ry="1" />
        <rect x="5" y="11" width="3" height="2" rx="1" ry="1" />
        <rect x="11" y="11" width="8" height="2" rx="1" ry="1" />
        <rect x="11" y="14" width="5" height="2" rx="1" ry="1" />
        <rect x="5" y="17" width="4" height="2" rx="1" ry="1" />
        <rect x="11" y="17" width="7" height="2" rx="1" ry="1" />
    </g>
</svg>
