<?xml version="1.0" encoding="UTF-8" ?>
<svg width="24px" height="48px" xmlns="http://www.w3.org/2000/svg" xmlns:xlink="http://www.w3.org/1999/xlink">
    <title>hack.Chat</title>
    <style type="text/css">
        .outline { fill: none; stroke-width: 2px; stroke: #bbbbbb; }
        .disabled { fill: #bbbbbb; }
        .enabled { fill: #78b2f2; }
        .enabled .outline { stroke: #78b2f2; }
    </style>
    <g class="disabled">
        <rect x="3" y="3" width="18" height="18" rx="2" ry="2" class="outline" />
        <rect x="6" y="6" width="3" height="11" rx="1" ry="1" />
        <rect x="6" y="10" width="10" height="3" rx="1" ry="1" />
        <rect x="15" y="6" width="3" height="11" rx="1" ry="1" />
        <rect x="5" y="18" width="14" height="1" rx="1" ry="1" />
    </g>
    <g class="enabled" transform="translate(0, 24)">
        <rect x="3" y="3" width="18" height="18" rx="2" ry="2" class="outline" />
        <rect x="6" y="6" width="3" height="11" rx="1" ry="1" />
        <rect x="6" y="10" width="10" height="3" rx="1" ry="1" />
        <rect x="15" y="6" width="3" height="11" rx="1" ry="1" />
        <rect x="5" y="18" width="14" height="1" rx="1" ry="1" />
    </g>
</svg>
